<svg width="51" height="36" viewBox="0 0 51 36" fill="none" xmlns="http://www.w3.org/2000/svg">
<g clip-path="url(#clip0_987_91)">
<path fill-rule="evenodd" clip-rule="evenodd" d="M63.7979 16.3842C73.5498 13.7243 80.7173 4.82334 80.7173 -5.74742C80.7173 -18.418 70.4195 -28.6895 57.7164 -28.6895C45.0133 -28.6895 34.7155 -18.418 34.7155 -5.74742C34.7155 4.74699 41.7797 13.5956 51.424 16.3256H51.887C53.7615 15.8997 55.7126 15.6749 57.7164 15.6749C59.8102 15.6749 61.8464 15.9205 63.7979 16.3842ZM68.5223 18C77.5668 13.8989 83.8558 4.8083 83.8558 -5.74742C83.8558 -20.1469 72.1528 -31.8199 57.7164 -31.8199C43.28 -31.8199 31.577 -20.1469 31.577 -5.74742C31.577 3.5493 36.4553 11.7095 43.7978 16.3256H0.490387V19.456H44.1513C36.6122 24.0302 31.577 32.3023 31.577 41.7474C31.577 56.1469 43.28 67.8199 57.7164 67.8199C72.1528 67.8199 83.8558 56.1469 83.8558 41.7474C83.8558 31.1917 77.5668 22.1011 68.5223 18ZM51.6348 19.6158C53.5863 20.0795 55.6226 20.3251 57.7164 20.3251C59.8102 20.3251 61.8464 20.0795 63.7979 19.6158C73.5498 22.2757 80.7173 31.1766 80.7173 41.7474C80.7173 54.418 70.4195 64.6895 57.7164 64.6895C45.0133 64.6895 34.7155 54.418 34.7155 41.7474C34.7155 31.1766 41.8829 22.2757 51.6348 19.6158Z" fill="#CE4545"/>
</g>
<defs>
<clipPath id="clip0_987_91">
<rect width="51" height="36" fill="white"/>
</clipPath>
</defs>
</svg>
