<svg width="32" height="32" viewBox="0 0 32 32" fill="none" xmlns="http://www.w3.org/2000/svg">
<rect x="8" y="7" width="16" height="16" fill="white"/>
<path fill-rule="evenodd" clip-rule="evenodd" d="M6.64667 2.66666C4.82 2.66666 3.46933 4.26532 3.53067 5.99732C3.588 7.66399 3.51333 9.81999 2.97067 11.5787C2.424 13.3413 1.504 14.4587 0 14.6027V16.2227C1.504 16.3653 2.42533 17.4827 2.96933 19.2467C3.51333 21.0053 3.588 23.1613 3.52933 24.8267C3.46933 26.56 4.82 28.1587 6.64667 28.1587H25.356C27.1827 28.1587 28.5333 26.56 28.472 24.8267C28.4147 23.1613 28.4893 21.0053 29.032 19.2467C29.5773 17.4827 30.496 16.3667 32 16.2227V14.6027C30.496 14.4587 29.5773 13.3413 29.032 11.5787C28.4893 9.81866 28.4147 7.66266 28.472 5.99732C28.5333 4.26399 27.1813 2.66666 25.356 2.66666H6.64667ZM21.6933 18.3587C21.6933 20.7453 19.9133 22.192 16.96 22.192H11.932C11.7881 22.192 11.65 22.1348 11.5483 22.033C11.4465 21.9313 11.3893 21.7932 11.3893 21.6493V9.17466C11.3897 9.03096 11.447 8.89328 11.5487 8.7918C11.6505 8.69031 11.7883 8.63332 11.932 8.63332H16.932C19.3947 8.63332 21.012 9.96666 21.012 12.016C21.012 13.4533 19.924 14.74 18.5387 14.9667V15.0413C20.4253 15.248 21.6947 16.5547 21.6947 18.3587H21.6933ZM16.4133 10.352H13.5467V14.4027H15.9613C17.828 14.4027 18.8573 13.6507 18.8573 12.3067C18.8573 11.048 17.972 10.352 16.4133 10.352ZM13.5467 16.0093V20.472H16.52C18.4627 20.472 19.4933 19.692 19.4933 18.2267C19.4933 16.76 18.4347 16.0093 16.3947 16.0093H13.5467Z" fill="#7D0EEE"/>
</svg>
