<svg width="64" height="64" viewBox="0 0 64 64" fill="none" xmlns="http://www.w3.org/2000/svg">
<path d="M12.6546 10.165L36.26 16.9086L36.3025 16.9228L36.3415 16.9335C43.2078 18.7152 48.2646 24.9654 48.2646 32.394C48.2752 34.1792 48.0415 35.6309 47.5174 37.2458L46.8623 39.3043L48.385 40.8305L54.9893 47.4534L47.482 54.9814L40.9379 48.4259L39.3975 46.882L37.3259 47.567C35.6651 48.1242 34.1707 48.3762 32.3293 48.3656C24.6415 48.3656 18.2178 42.9033 16.7234 35.638L16.6951 35.5067L16.6597 35.3753L10.1723 12.6957L27.5346 30.0976C27.2017 30.7968 27.0176 31.5705 27.0176 32.394C27.0176 35.3327 29.3972 37.7178 32.3293 37.7178C35.2614 37.7178 37.6411 35.3327 37.6411 32.394C37.6411 29.4552 35.2614 27.0701 32.3293 27.0701C31.5078 27.0701 30.7358 27.2547 30.0382 27.5883L12.6511 10.1615L12.6546 10.165ZM47.4784 60L60 47.4534L50.8921 38.3248C51.4835 36.4543 51.8057 34.4596 51.8057 32.394C51.8057 23.3079 45.6158 15.677 37.2338 13.4978L4 4L13.2531 36.3549C15.0839 45.2351 22.9275 51.9148 32.3293 51.9148C34.4611 51.9148 36.515 51.5705 38.4343 50.9352L47.4784 60V60Z" fill="#CFCD59"/>
</svg>
