<svg width="64" height="64" viewBox="0 0 64 64" fill="none" xmlns="http://www.w3.org/2000/svg">
<path d="M55.9947 16.6667C55.9947 14.3681 55.0816 12.1637 53.4563 10.5384C51.8309 8.91309 49.6265 8 47.328 8H16.6667C14.3681 8 12.1637 8.91309 10.5384 10.5384C8.91309 12.1637 8 14.3681 8 16.6667V47.3307C8 49.6292 8.91309 51.8336 10.5384 53.4589C12.1637 55.0842 14.3681 55.9973 16.6667 55.9973H29.7707L30.72 52.2L30.7733 51.9973H16.6667C15.429 51.9973 14.242 51.5057 13.3668 50.6305C12.4917 49.7553 12 48.5683 12 47.3307V22.664H51.9947V29.952C53.2747 29.4453 54.6453 29.248 55.9947 29.3653V16.6667V16.6667ZM16.6667 12H47.3307C49.9067 12 51.9973 14.088 51.9973 16.6667V18.6667H11.9973V16.6667C11.9973 14.088 14.088 12 16.664 12H16.6667ZM50.928 33.784L35.192 49.52C34.2734 50.4378 33.6217 51.5882 33.3067 52.848L32.088 57.728C31.5547 59.8533 33.48 61.776 35.6027 61.2453L40.4827 60.024C41.7421 59.7097 42.8925 59.059 43.8107 58.1413L59.5467 42.4C60.6603 41.2507 61.2774 39.7097 61.2647 38.1094C61.252 36.5091 60.6105 34.978 59.4787 33.8466C58.347 32.7152 56.8157 32.0742 55.2154 32.062C53.6151 32.0498 52.0742 32.6673 50.9253 33.7813L50.928 33.784Z" fill="#CFCD59"/>
</svg>
