<svg width="32" height="32" viewBox="0 0 32 32" fill="none" xmlns="http://www.w3.org/2000/svg">
<path d="M4 9C4 7.67392 4.52678 6.40215 5.46447 5.46447C6.40215 4.52678 7.67392 4 9 4H23C24.3261 4 25.5979 4.52678 26.5355 5.46447C27.4732 6.40215 28 7.67392 28 9V23C28 24.3261 27.4732 25.5979 26.5355 26.5355C25.5979 27.4732 24.3261 28 23 28H9C7.67392 28 6.40215 27.4732 5.46447 26.5355C4.52678 25.5979 4 24.3261 4 23V9ZM15 12C14.7348 12 14.4804 12.1054 14.2929 12.2929C14.1054 12.4804 14 12.7348 14 13V21C14 21.2652 13.8946 21.5196 13.7071 21.7071C13.5196 21.8946 13.2652 22 13 22H11C10.7348 22 10.4804 22.1054 10.2929 22.2929C10.1054 22.4804 10 22.7348 10 23C10 23.2652 10.1054 23.5196 10.2929 23.7071C10.4804 23.8946 10.7348 24 11 24H13C13.7956 24 14.5587 23.6839 15.1213 23.1213C15.6839 22.5587 16 21.7956 16 21V13C16 12.7348 15.8946 12.4804 15.7071 12.2929C15.5196 12.1054 15.2652 12 15 12ZM17 15V16C17 16.7956 17.3161 17.5587 17.8787 18.1213C18.4413 18.6839 19.2044 19 20 19H21C21.2652 19 21.5196 19.1054 21.7071 19.2929C21.8946 19.4804 22 19.7348 22 20V21C22 21.2652 21.8946 21.5196 21.7071 21.7071C21.5196 21.8946 21.2652 22 21 22H18C17.7348 22 17.4804 22.1054 17.2929 22.2929C17.1054 22.4804 17 22.7348 17 23C17 23.2652 17.1054 23.5196 17.2929 23.7071C17.4804 23.8946 17.7348 24 18 24H21C21.7956 24 22.5587 23.6839 23.1213 23.1213C23.6839 22.5587 24 21.7956 24 21V20C24 19.2044 23.6839 18.4413 23.1213 17.8787C22.5587 17.3161 21.7956 17 21 17H20C19.7348 17 19.4804 16.8946 19.2929 16.7071C19.1054 16.5196 19 16.2652 19 16V15C19 14.7348 19.1054 14.4804 19.2929 14.2929C19.4804 14.1054 19.7348 14 20 14H23C23.2652 14 23.5196 13.8946 23.7071 13.7071C23.8946 13.5196 24 13.2652 24 13C24 12.7348 23.8946 12.4804 23.7071 12.2929C23.5196 12.1054 23.2652 12 23 12H20C19.2044 12 18.4413 12.3161 17.8787 12.8787C17.3161 13.4413 17 14.2044 17 15V15Z" fill="#FFD233"/>
</svg>
