<svg width="203" height="34" viewBox="0 0 203 34" fill="none" xmlns="http://www.w3.org/2000/svg">
<path d="M1.67587 22.8565V5.05285H12.2099V8.41578H4.93185V12.2732H10.7735V15.6361H4.93185V22.8565H1.67587ZM14.6106 7.64923V4.68195H17.8665V7.64923H14.6106ZM14.6106 22.8565V9.50378H17.8665V22.8565H14.6106ZM26.9857 29.162C26.2515 29.162 25.5532 29.0383 24.8908 28.7911C24.2285 28.552 23.6339 28.2141 23.1072 27.7772C22.5885 27.3486 22.1656 26.8458 21.8384 26.2689L24.8549 24.7605C25.0624 25.1561 25.3577 25.457 25.7407 25.6631C26.1318 25.8691 26.5547 25.9721 27.0096 25.9721C27.4964 25.9721 27.9553 25.8856 28.3862 25.7125C28.8172 25.5477 29.1603 25.2963 29.4157 24.9583C29.679 24.6286 29.8027 24.2165 29.7868 23.722V19.8398H30.1938V9.50378H33.0428V23.7714C33.0428 24.1011 33.0268 24.4102 32.9949 24.6987C32.9709 24.9954 32.9231 25.288 32.8512 25.5765C32.6437 26.3925 32.2567 27.0643 31.6901 27.5918C31.1315 28.1193 30.4452 28.5108 29.6312 28.7663C28.8172 29.0301 27.9353 29.162 26.9857 29.162ZM26.6984 23.2274C25.5093 23.2274 24.4679 22.9183 23.5741 22.3001C22.6803 21.682 21.982 20.8412 21.4792 19.778C20.9845 18.7147 20.7371 17.5154 20.7371 16.1801C20.7371 14.8201 20.9885 13.6126 21.4912 12.5576C22.002 11.4943 22.7162 10.6577 23.6339 10.0478C24.5517 9.43784 25.629 9.13287 26.866 9.13287C28.095 9.13287 29.1284 9.44196 29.9663 10.0601C30.8043 10.6783 31.4387 11.5191 31.8696 12.5823C32.3006 13.6456 32.5161 14.8449 32.5161 16.1801C32.5161 17.5154 32.2966 18.7147 31.8577 19.778C31.4267 20.8412 30.7803 21.682 29.9185 22.3001C29.0566 22.9183 27.9832 23.2274 26.6984 23.2274ZM27.2251 20.2354C27.9513 20.2354 28.5299 20.0664 28.9608 19.7285C29.3997 19.3906 29.715 18.9166 29.9065 18.3067C30.098 17.6967 30.1938 16.9879 30.1938 16.1801C30.1938 15.3724 30.098 14.6635 29.9065 14.0536C29.715 13.4437 29.4077 12.9697 28.9848 12.6318C28.5698 12.2938 28.0231 12.1249 27.3448 12.1249C26.6186 12.1249 26.0201 12.3103 25.5492 12.6812C25.0864 13.0439 24.7432 13.5343 24.5198 14.1525C24.2963 14.7624 24.1846 15.4383 24.1846 16.1801C24.1846 16.9302 24.2923 17.6143 24.5078 18.2325C24.7233 18.8424 25.0544 19.3287 25.5013 19.6914C25.9482 20.0541 26.5228 20.2354 27.2251 20.2354ZM51.9565 22.8565V14.9685C51.9565 14.0866 51.753 13.4024 51.346 12.9161C50.947 12.4216 50.3924 12.1743 49.6823 12.1743C49.2274 12.1743 48.8324 12.2856 48.4972 12.5081C48.1621 12.7224 47.8987 13.0274 47.7072 13.4231C47.5236 13.8104 47.4319 14.2597 47.4319 14.7707L46.0672 13.8311C46.0672 12.9161 46.2747 12.1084 46.6897 11.4078C47.1127 10.7072 47.6753 10.1632 48.3775 9.77578C49.0878 9.38014 49.8739 9.18232 50.7355 9.18232C52.2119 9.18232 53.3252 9.63566 54.0753 10.5423C54.8334 11.4407 55.2125 12.6194 55.2125 14.0783V22.8565H51.9565ZM36.3711 22.8565V9.50378H39.244V13.93H39.651V22.8565H36.3711ZM44.1759 22.8565V14.9685C44.1759 14.0866 43.9724 13.4024 43.5654 12.9161C43.1664 12.4216 42.6117 12.1743 41.9015 12.1743C41.2232 12.1743 40.6765 12.4175 40.2615 12.9038C39.8545 13.3818 39.651 14.0041 39.651 14.7707L38.2864 13.7816C38.2864 12.9079 38.4979 12.1249 38.9208 11.4325C39.3438 10.7401 39.9104 10.192 40.6206 9.78814C41.3389 9.38426 42.1409 9.18232 43.0267 9.18232C44.0402 9.18232 44.8702 9.40487 45.5166 9.84996C46.171 10.2951 46.6538 10.8885 46.965 11.6303C47.2763 12.3721 47.4319 13.1881 47.4319 14.0783V22.8565H44.1759ZM61.9165 23.2274C60.9908 23.2274 60.2047 23.0461 59.5583 22.6834C58.9199 22.3125 58.4331 21.8221 58.0979 21.2121C57.7707 20.594 57.6071 19.914 57.6071 19.1721C57.6071 18.554 57.6989 17.9894 57.8824 17.4783C58.066 16.9673 58.3613 16.5181 58.7682 16.1307C59.1832 15.7351 59.7379 15.4054 60.4322 15.1416C60.911 14.9603 61.4816 14.7995 62.1439 14.6594C62.8063 14.5193 63.5565 14.3874 64.3944 14.2638C65.2323 14.1319 66.1541 13.9877 67.1596 13.8311L65.9865 14.4987C65.9865 13.7074 65.8029 13.1263 65.4358 12.7554C65.0687 12.3845 64.4542 12.1991 63.5924 12.1991C63.1135 12.1991 62.6148 12.3186 62.0961 12.5576C61.5773 12.7966 61.2142 13.2211 61.0067 13.8311L58.062 12.8667C58.3892 11.7622 59.0037 10.8638 59.9055 10.1714C60.8072 9.47905 62.0362 9.13287 63.5924 9.13287C64.7336 9.13287 65.7471 9.3142 66.6329 9.67687C67.5187 10.0395 68.189 10.666 68.6439 11.5561C68.8993 12.0507 69.0509 12.5452 69.0988 13.0398C69.1467 13.5343 69.1706 14.0866 69.1706 14.6965V22.8565H66.3216V20.1118L66.7286 20.6805C66.0982 21.5789 65.4159 22.2301 64.6817 22.634C63.9555 23.0296 63.0337 23.2274 61.9165 23.2274ZM62.6108 20.5816C63.2093 20.5816 63.7121 20.4744 64.1191 20.2601C64.534 20.0376 64.8612 19.7862 65.1007 19.506C65.348 19.2257 65.5156 18.9908 65.6034 18.8012C65.771 18.4386 65.8668 18.0182 65.8907 17.5401C65.9226 17.0538 65.9386 16.65 65.9386 16.3285L66.8962 16.5758C65.9306 16.7406 65.1485 16.8807 64.55 16.9961C63.9515 17.1033 63.4687 17.2022 63.1016 17.2929C62.7345 17.3835 62.4113 17.4824 62.132 17.5896C61.8128 17.7215 61.5534 17.8657 61.3539 18.0223C61.1624 18.1707 61.0187 18.3355 60.9229 18.5169C60.8352 18.6982 60.7913 18.9001 60.7913 19.1227C60.7913 19.4277 60.8631 19.6914 61.0067 19.914C61.1584 20.1283 61.3698 20.2931 61.6412 20.4085C61.9125 20.5239 62.2357 20.5816 62.6108 20.5816Z" fill="#64697A"/>
<path d="M80.6913 22.8565L75.6397 5.05286H79.0633L82.2953 17.2929L85.5274 5.07758L88.9509 5.05286L92.183 17.2929L95.415 5.05286H98.8386L93.787 22.8565H90.5789L87.2391 10.8391L83.8994 22.8565H80.6913ZM105.152 23.2274C103.851 23.2274 102.71 22.9266 101.728 22.3249C100.746 21.7232 99.9803 20.8948 99.4296 19.8398C98.887 18.7765 98.6156 17.5566 98.6156 16.1801C98.6156 14.7872 98.8949 13.5632 99.4536 12.5081C100.012 11.4449 100.782 10.6165 101.764 10.0231C102.745 9.4296 103.875 9.13287 105.152 9.13287C106.452 9.13287 107.594 9.43372 108.575 10.0354C109.565 10.6371 110.335 11.4696 110.885 12.5329C111.436 13.5879 111.711 14.8037 111.711 16.1801C111.711 17.5649 111.432 18.7889 110.873 19.8521C110.323 20.9072 109.553 21.7355 108.563 22.3372C107.582 22.9307 106.444 23.2274 105.152 23.2274ZM105.152 20.0871C106.197 20.0871 106.975 19.7244 107.486 18.9991C108.005 18.2655 108.264 17.3258 108.264 16.1801C108.264 14.9932 108.001 14.0454 107.474 13.3365C106.955 12.6277 106.181 12.2732 105.152 12.2732C104.441 12.2732 103.859 12.4381 103.404 12.7678C102.949 13.0975 102.61 13.5549 102.386 14.1401C102.171 14.7254 102.063 15.4054 102.063 16.1801C102.063 17.3753 102.322 18.3273 102.841 19.0361C103.368 19.7367 104.138 20.0871 105.152 20.0871ZM114.344 22.8565V9.50378H117.217V12.7678L116.906 12.3474C117.073 11.8858 117.297 11.4655 117.576 11.0863C117.855 10.7072 118.198 10.394 118.605 10.1467C118.917 9.94887 119.256 9.79639 119.623 9.68924C119.99 9.57384 120.369 9.50378 120.76 9.47905C121.151 9.44608 121.542 9.45433 121.933 9.50378V12.6441C121.574 12.5287 121.155 12.4917 120.676 12.5329C120.205 12.5658 119.779 12.6771 119.395 12.8667C119.012 13.048 118.689 13.2912 118.426 13.5961C118.162 13.8929 117.963 14.2473 117.827 14.6594C117.692 15.0633 117.624 15.5207 117.624 16.0318V22.8565H114.344ZM129.219 23.2274C128.03 23.2274 126.989 22.9183 126.095 22.3001C125.201 21.682 124.503 20.8412 124 19.778C123.505 18.7147 123.258 17.5154 123.258 16.1801C123.258 14.8201 123.509 13.6126 124.012 12.5576C124.523 11.4943 125.237 10.6577 126.155 10.0478C127.073 9.43784 128.15 9.13287 129.387 9.13287C130.616 9.13287 131.649 9.44196 132.487 10.0601C133.325 10.6783 133.96 11.5191 134.391 12.5823C134.821 13.6456 135.037 14.8449 135.037 16.1801C135.037 17.5154 134.817 18.7147 134.379 19.778C133.948 20.8412 133.301 21.682 132.439 22.3001C131.577 22.9183 130.504 23.2274 129.219 23.2274ZM129.746 20.2354C130.472 20.2354 131.051 20.0664 131.482 19.7285C131.921 19.3906 132.236 18.9166 132.427 18.3067C132.619 17.6967 132.715 16.9879 132.715 16.1801C132.715 15.3724 132.619 14.6635 132.427 14.0536C132.236 13.4437 131.929 12.9697 131.506 12.6318C131.091 12.2938 130.544 12.1249 129.866 12.1249C129.139 12.1249 128.541 12.3103 128.07 12.6812C127.607 13.0439 127.264 13.5343 127.041 14.1525C126.817 14.7624 126.705 15.4383 126.705 16.1801C126.705 16.9302 126.813 17.6143 127.029 18.2325C127.244 18.8424 127.575 19.3287 128.022 19.6914C128.469 20.0541 129.044 20.2354 129.746 20.2354ZM132.715 22.8565V13.7074H132.308V5.05286H135.588V22.8565H132.715ZM145.284 23.2274C143.999 23.2274 142.925 22.9183 142.064 22.3001C141.202 21.682 140.551 20.8412 140.112 19.778C139.681 18.7147 139.466 17.5154 139.466 16.1801C139.466 14.8449 139.681 13.6456 140.112 12.5823C140.543 11.5191 141.178 10.6783 142.016 10.0601C142.854 9.44196 143.887 9.13287 145.116 9.13287C146.353 9.13287 147.43 9.43784 148.348 10.0478C149.266 10.6577 149.976 11.4943 150.479 12.5576C150.99 13.6126 151.245 14.8201 151.245 16.1801C151.245 17.5154 150.994 18.7147 150.491 19.778C149.996 20.8412 149.302 21.682 148.408 22.3001C147.514 22.9183 146.473 23.2274 145.284 23.2274ZM138.915 28.7911V9.50378H141.788V18.6529H142.195V28.7911H138.915ZM144.757 20.2354C145.459 20.2354 146.034 20.0541 146.481 19.6914C146.928 19.3287 147.259 18.8424 147.474 18.2325C147.69 17.6143 147.797 16.9302 147.797 16.1801C147.797 15.4383 147.686 14.7624 147.462 14.1525C147.239 13.5343 146.892 13.0439 146.421 12.6812C145.958 12.3103 145.363 12.1249 144.637 12.1249C143.959 12.1249 143.408 12.2938 142.985 12.6318C142.57 12.9697 142.267 13.4437 142.076 14.0536C141.884 14.6635 141.788 15.3724 141.788 16.1801C141.788 16.9879 141.884 17.6967 142.076 18.3067C142.267 18.9166 142.578 19.3906 143.009 19.7285C143.448 20.0664 144.031 20.2354 144.757 20.2354ZM153.879 22.8565V9.50378H156.752V12.7678L156.441 12.3474C156.608 11.8858 156.832 11.4655 157.111 11.0863C157.39 10.7072 157.734 10.394 158.141 10.1467C158.452 9.94887 158.791 9.79639 159.158 9.68924C159.525 9.57384 159.904 9.50378 160.295 9.47905C160.686 9.44608 161.077 9.45433 161.468 9.50378V12.6441C161.109 12.5287 160.69 12.4917 160.211 12.5329C159.741 12.5658 159.314 12.6771 158.931 12.8667C158.548 13.048 158.224 13.2912 157.961 13.5961C157.698 13.8929 157.498 14.2473 157.362 14.6594C157.227 15.0633 157.159 15.5207 157.159 16.0318V22.8565H153.879ZM169.521 23.2274C168.196 23.2274 167.027 22.9348 166.014 22.3496C165.008 21.7561 164.218 20.9443 163.643 19.914C163.077 18.8754 162.794 17.6885 162.794 16.3532C162.794 14.8943 163.073 13.625 163.631 12.5452C164.19 11.4655 164.96 10.6289 165.942 10.0354C166.923 9.43372 168.053 9.13287 169.329 9.13287C170.686 9.13287 171.839 9.46257 172.789 10.122C173.739 10.7814 174.441 11.7086 174.896 12.9038C175.351 14.0989 175.51 15.5043 175.375 17.1198H172.155V15.8834C172.155 14.5234 171.943 13.5467 171.52 12.9532C171.105 12.3515 170.423 12.0507 169.473 12.0507C168.364 12.0507 167.546 12.401 167.019 13.1016C166.5 13.794 166.241 14.8201 166.241 16.1801C166.241 17.4247 166.5 18.3891 167.019 19.0732C167.546 19.7491 168.316 20.0871 169.329 20.0871C169.968 20.0871 170.515 19.9428 170.969 19.6543C171.424 19.3658 171.771 18.9496 172.011 18.4056L175.267 19.37C174.78 20.5898 174.01 21.5377 172.957 22.2136C171.911 22.8895 170.766 23.2274 169.521 23.2274ZM165.236 17.1198V14.6223H173.806V17.1198H165.236ZM183.129 23.2274C181.501 23.2274 180.184 22.8483 179.179 22.09C178.181 21.3234 177.575 20.2437 177.359 18.8507L180.687 18.3314C180.823 18.9578 181.122 19.4483 181.585 19.8027C182.056 20.1571 182.65 20.3343 183.368 20.3343C183.959 20.3343 184.414 20.2189 184.733 19.9881C185.052 19.7491 185.212 19.4194 185.212 18.9991C185.212 18.7353 185.148 18.5251 185.02 18.3685C184.893 18.2037 184.605 18.0429 184.158 17.8863C183.72 17.7297 183.033 17.5237 182.1 17.2681C181.046 16.9879 180.204 16.6747 179.574 16.3285C178.943 15.9823 178.488 15.5702 178.209 15.0921C177.93 14.6058 177.79 14.0206 177.79 13.3365C177.79 12.4793 178.002 11.7375 178.425 11.1111C178.848 10.4764 179.442 9.99008 180.208 9.65214C180.982 9.30596 181.892 9.13287 182.937 9.13287C183.951 9.13287 184.849 9.2936 185.631 9.61505C186.413 9.93651 187.043 10.394 187.522 10.9874C188.009 11.5809 188.308 12.2815 188.42 13.0892L185.092 13.7074C185.036 13.2129 184.829 12.8214 184.47 12.5329C184.111 12.2444 183.624 12.0754 183.009 12.026C182.411 11.9847 181.928 12.0672 181.561 12.2732C181.202 12.4793 181.022 12.776 181.022 13.1634C181.022 13.3942 181.098 13.5879 181.25 13.7445C181.409 13.9011 181.732 14.0618 182.219 14.2267C182.714 14.3915 183.464 14.6058 184.47 14.8696C185.451 15.1334 186.237 15.4424 186.828 15.7969C187.426 16.1431 187.861 16.5634 188.133 17.058C188.404 17.5443 188.54 18.1336 188.54 18.826C188.54 20.1942 188.061 21.2698 187.103 22.0529C186.146 22.8359 184.821 23.2274 183.129 23.2274ZM196.222 23.2274C194.594 23.2274 193.277 22.8483 192.271 22.09C191.274 21.3234 190.667 20.2437 190.452 18.8507L193.78 18.3314C193.915 18.9578 194.215 19.4483 194.678 19.8027C195.148 20.1571 195.743 20.3343 196.461 20.3343C197.052 20.3343 197.507 20.2189 197.826 19.9881C198.145 19.7491 198.305 19.4194 198.305 18.9991C198.305 18.7353 198.241 18.5251 198.113 18.3685C197.985 18.2037 197.698 18.0429 197.251 17.8863C196.812 17.7297 196.126 17.5237 195.192 17.2681C194.139 16.9879 193.297 16.6747 192.666 16.3285C192.036 15.9823 191.581 15.5702 191.302 15.0921C191.023 14.6058 190.883 14.0206 190.883 13.3365C190.883 12.4793 191.094 11.7375 191.517 11.1111C191.94 10.4764 192.535 9.99008 193.301 9.65214C194.075 9.30596 194.985 9.13287 196.03 9.13287C197.044 9.13287 197.941 9.2936 198.724 9.61505C199.506 9.93651 200.136 10.394 200.615 10.9874C201.102 11.5809 201.401 12.2815 201.513 13.0892L198.185 13.7074C198.129 13.2129 197.922 12.8214 197.562 12.5329C197.203 12.2444 196.717 12.0754 196.102 12.026C195.504 11.9847 195.021 12.0672 194.654 12.2732C194.294 12.4793 194.115 12.776 194.115 13.1634C194.115 13.3942 194.191 13.5879 194.342 13.7445C194.502 13.9011 194.825 14.0618 195.312 14.2267C195.807 14.3915 196.557 14.6058 197.562 14.8696C198.544 15.1334 199.33 15.4424 199.921 15.7969C200.519 16.1431 200.954 16.5634 201.225 17.058C201.497 17.5443 201.632 18.1336 201.632 18.826C201.632 20.1942 201.154 21.2698 200.196 22.0529C199.238 22.8359 197.914 23.2274 196.222 23.2274Z" fill="#3091CF"/>
<path d="M99.3039 28.6286C99.1942 28.8033 99.293 28.8009 99.1448 28.9067C99.2236 28.8832 98.9363 28.853 99.1448 28.9067C99.066 28.9303 99.1418 28.831 99.1029 28.9534C99.0411 28.9373 98.859 29.1423 98.8236 29.089C98.7882 29.0357 98.9004 28.7252 98.8969 28.6429L98.656 24.4618L94.386 26.4645C94.3032 26.5069 94.2239 26.5307 94.1526 26.5345C94.0808 26.5382 94.1606 26.5714 94.1112 26.5359C94.3581 26.7445 94.0618 26.5004 94.1112 26.5359C94.0918 26.4665 94.3062 26.9884 94.1057 26.5323C94.1152 26.4375 94.0598 26.5806 94.1037 26.4744C94.0329 26.5742 94.1471 26.3683 94.1037 26.4744C94.1741 26.3747 94.2219 26.1248 94.3072 26.0482C94.3925 25.9714 94.5028 25.855 94.5885 25.8143L99.4421 22.5606C99.5877 22.4851 99.7214 22.468 99.8207 22.5125C99.9194 22.5569 99.9778 22.6601 99.9848 22.8043L99.4157 28.1824C99.4201 28.2806 99.3448 28.5088 99.3039 28.6286C99.263 28.7484 99.3817 28.5132 99.3039 28.6286Z" fill="#CFCD59"/>
<path fill-rule="evenodd" clip-rule="evenodd" d="M98.0724 25.1666C96.9307 28.8211 88.8576 31.2728 79.2832 30.7286C71.1552 30.2666 64.4079 27.7853 62.1798 24.7493C62.8317 28.8555 70.2525 32.4498 79.5451 32.978C89.4741 33.5424 97.7812 30.3931 98.0989 25.9438C98.1173 25.6832 98.1083 25.424 98.0724 25.1666Z" fill="#CFCD59"/>
</svg>
