<svg width="201" height="201" viewBox="0 0 201 201" fill="none" xmlns="http://www.w3.org/2000/svg">
<rect x="1" y="1" width="199" height="199" rx="99.5" stroke="#64697A"/>
<path d="M89.37 180.856L91.5751 181.165L91.4012 182.302L89.2106 181.995C88.4563 181.889 87.8056 181.959 87.2587 182.203C86.7112 182.451 86.2717 182.843 85.9404 183.379C85.6036 183.918 85.3813 184.573 85.2737 185.341L85.1834 185.987C85.0988 186.591 85.0962 187.138 85.1756 187.628C85.2543 188.122 85.4113 188.551 85.6464 188.914C85.8808 189.282 86.1893 189.579 86.5718 189.805C86.9495 190.031 87.3995 190.18 87.9217 190.253L90.3009 190.586L90.1405 191.732L87.7613 191.399C87.0698 191.302 86.455 191.098 85.9169 190.786C85.3781 190.479 84.9336 190.079 84.5835 189.586C84.2279 189.098 83.9818 188.531 83.8453 187.885C83.7081 187.245 83.693 186.543 83.8 185.779L83.8883 185.148C83.9952 184.384 84.2029 183.71 84.5113 183.127C84.819 182.549 85.2133 182.074 85.6943 181.703C86.1704 181.33 86.7197 181.07 87.3421 180.92C87.959 180.775 88.635 180.753 89.37 180.856ZM89.3498 191.621L90.828 181.06L92.2279 181.256L90.7498 191.817L89.3498 191.621Z" fill="#64697A"/>
<path d="M70.9314 177.55L71.286 176.457L76.6577 178.198L76.303 179.292L70.9314 177.55ZM73.0967 188.254L76.386 178.11L77.7306 178.546L74.4414 188.69L73.0967 188.254ZM70.1216 182.47L70.4763 181.376L75.1373 182.887L74.7826 183.981L70.1216 182.47ZM68.0665 186.623L68.4234 185.522L73.7254 187.242L73.3684 188.342L68.0665 186.623Z" fill="#64697A"/>
<path d="M58.5581 173.48C58.4426 173.701 58.3754 173.913 58.3563 174.118C58.3307 174.325 58.366 174.542 58.4623 174.769C58.5543 174.993 58.7145 175.245 58.9431 175.525C59.1673 175.802 59.4683 176.122 59.846 176.485C60.2408 176.868 60.5823 177.242 60.8704 177.608C61.1563 177.978 61.3756 178.343 61.5284 178.704C61.6812 179.065 61.7543 179.426 61.7477 179.786C61.741 180.146 61.6415 180.51 61.4491 180.878C61.2567 181.246 61.0033 181.546 60.6889 181.778C60.3745 182.01 60.0167 182.168 59.6155 182.25C59.2077 182.334 58.773 182.338 58.3114 182.262C57.8498 182.186 57.3767 182.021 56.8922 181.767C56.1826 181.396 55.6526 180.945 55.3019 180.414C54.9447 179.886 54.7507 179.335 54.7197 178.762C54.6865 178.194 54.7989 177.663 55.0569 177.17L56.3029 177.822C56.1173 178.177 56.0289 178.53 56.0378 178.882C56.0443 179.238 56.1604 179.574 56.3861 179.891C56.6095 180.211 56.957 180.495 57.4286 180.742C57.8743 180.975 58.2771 181.1 58.6371 181.118C58.9972 181.135 59.3086 181.067 59.5713 180.912C59.8297 180.755 60.0359 180.53 60.1898 180.236C60.2939 180.037 60.3479 179.833 60.3517 179.626C60.3489 179.421 60.2951 179.202 60.1901 178.971C60.0809 178.738 59.9183 178.49 59.7026 178.228C59.4825 177.964 59.206 177.677 58.8732 177.365C58.416 176.933 58.0413 176.522 57.7493 176.132C57.4572 175.742 57.2469 175.365 57.1182 175C56.9829 174.637 56.9316 174.277 56.9644 173.919C56.9906 173.564 57.0999 173.202 57.2923 172.834C57.4938 172.449 57.7539 172.142 58.0726 171.912C58.3913 171.682 58.7533 171.532 59.1586 171.463C59.564 171.394 60.0017 171.406 60.4717 171.497C60.9352 171.591 61.4157 171.768 61.9132 172.028C62.3502 172.257 62.749 172.543 63.1096 172.886C63.4659 173.226 63.7537 173.608 63.9731 174.032C64.1881 174.453 64.3066 174.895 64.3287 175.358C64.3442 175.824 64.2285 176.292 63.9818 176.764L62.7358 176.112C62.9055 175.788 62.9888 175.476 62.9856 175.177C62.9801 174.882 62.9088 174.602 62.7717 174.337C62.6303 174.07 62.4404 173.828 62.2019 173.609C61.9569 173.393 61.683 173.205 61.3802 173.047C60.9432 172.818 60.5416 172.685 60.1754 172.648C59.8091 172.611 59.4893 172.664 59.2158 172.807C58.938 172.949 58.7188 173.173 58.5581 173.48Z" fill="#64697A"/>
<path d="M45.4724 174.501L51.7244 165.862L52.8696 166.69L46.6176 175.33L45.4724 174.501Z" fill="#64697A"/>
<path d="M31.8878 162.52L39.4095 154.96L40.4167 155.962L38.421 165.58L44.2224 159.749L45.2245 160.746L37.7028 168.306L36.7008 167.309L38.6964 157.66L32.8795 163.506L31.8878 162.52Z" fill="#64697A"/>
<path d="M25.76 145.625L28.9921 143.435C29.2278 143.435 29.5274 143.486 29.8911 143.587C30.2508 143.692 30.6478 143.903 31.0822 144.222C31.5097 144.54 31.9467 145.029 32.3931 145.688C32.7572 146.225 32.9997 146.783 33.1204 147.362C33.2344 147.94 33.2237 148.516 33.0885 149.091C32.9464 149.665 32.6783 150.218 32.284 150.751C31.883 151.282 31.353 151.771 30.6941 152.217L30.0088 152.681C29.3499 153.127 28.7096 153.449 28.0881 153.646C27.4638 153.839 26.8691 153.905 26.3039 153.846C25.7347 153.789 25.2079 153.603 24.7235 153.289C24.235 152.977 23.7977 152.536 23.4116 151.966C22.9543 151.291 22.6895 150.647 22.6173 150.036C22.5383 149.423 22.6167 148.851 22.8525 148.319C23.0856 147.784 23.4382 147.303 23.9104 146.877L24.7032 148.048C24.4194 148.317 24.1995 148.619 24.0435 148.955C23.8848 149.286 23.8238 149.649 23.8606 150.043C23.8933 150.439 24.063 150.864 24.3697 151.317C24.6463 151.725 24.9607 152.028 25.3129 152.226C25.6651 152.424 26.0464 152.525 26.4568 152.53C26.8672 152.536 27.3033 152.452 27.7652 152.281C28.2244 152.106 28.7026 151.85 29.1998 151.513L29.8972 151.04C30.4066 150.695 30.8217 150.329 31.1425 149.94C31.4606 149.548 31.6858 149.145 31.8182 148.731C31.9465 148.32 31.9794 147.911 31.9168 147.505C31.8515 147.095 31.6915 146.702 31.4369 146.326C31.1548 145.91 30.8918 145.596 30.6478 145.384C30.3998 145.174 30.178 145.029 29.9824 144.95C29.7828 144.873 29.6125 144.826 29.4715 144.809L27.4946 146.148L28.8788 148.192L27.9328 148.833L25.76 145.625Z" fill="#64697A"/>
<path d="M13.313 132.407L23.1236 128.227L23.6806 129.534L18.2184 137.697L25.7851 134.473L26.3393 135.774L16.5287 139.954L15.9746 138.654L21.4484 130.461L13.8614 133.694L13.313 132.407Z" fill="#64697A"/>
<path d="M18.2439 114.666L19.3655 114.412L20.6105 119.92L19.4889 120.174L18.2439 114.666ZM10.1459 121.993L20.5475 119.642L20.8592 121.021L10.4575 123.372L10.1459 121.993ZM13.6007 116.481L14.7223 116.228L15.8026 121.007L14.681 121.261L13.6007 116.481ZM8.97999 116.835L10.1087 116.58L11.3376 122.017L10.2088 122.272L8.97999 116.835Z" fill="#64697A"/>
<path d="M7.75083 107.998L7.58214 104.472C7.54387 103.672 7.63349 102.991 7.85098 102.428C8.06824 101.86 8.40898 101.421 8.87318 101.111C9.33227 100.795 9.9081 100.621 10.6007 100.588C11.0884 100.565 11.5394 100.643 11.9538 100.824C12.3631 101 12.718 101.266 13.0186 101.624C13.3141 101.976 13.5424 102.405 13.7035 102.911L13.876 103.298L14.0346 106.612L12.8867 106.682L12.767 104.18C12.7427 103.673 12.6347 103.255 12.4431 102.927C12.2465 102.599 11.9929 102.357 11.6824 102.201C11.3718 102.044 11.0337 101.975 10.6679 101.993C10.2582 102.012 9.90355 102.11 9.60399 102.285C9.30442 102.461 9.08001 102.726 8.93075 103.08C8.77638 103.43 8.71214 103.875 8.73804 104.417L8.83919 106.531L18.3352 106.077L18.4027 107.489L7.75083 107.998ZM18.1049 101.263L13.4003 104.084L13.3226 102.614L17.945 99.76L18.0328 99.7558L18.1049 101.263Z" fill="#64697A"/>
<path d="M18.9438 83.9824C18.7191 83.9357 18.5446 83.8272 18.4205 83.6567C18.2925 83.4805 18.2564 83.2586 18.312 82.9909C18.3676 82.7231 18.4887 82.5364 18.6753 82.4305C18.8581 82.3189 19.0618 82.2864 19.2865 82.3331C19.5064 82.3788 19.678 82.4893 19.8012 82.6645C19.9253 82.8349 19.9596 83.054 19.904 83.3217C19.8483 83.5894 19.7291 83.7791 19.5463 83.8907C19.3645 83.9976 19.1637 84.0281 18.9438 83.9824Z" fill="#64697A"/>
<path d="M26.1489 64.5175L25.1651 66.515L24.14 65.9938L25.1173 64.0095C25.4539 63.3261 25.5919 62.6866 25.5316 62.0908C25.4668 61.4928 25.2321 60.9527 24.8274 60.4703C24.4205 59.9815 23.8688 59.5655 23.1723 59.2225L22.5875 58.9345C22.04 58.6648 21.5214 58.491 21.0318 58.4132C20.5378 58.3332 20.0815 58.3479 19.6629 58.4575C19.2399 58.5648 18.8611 58.7647 18.5266 59.0572C18.1942 59.3452 17.9115 59.7258 17.6785 60.1989L16.6171 62.354L15.579 61.8427L16.6404 59.6876C16.9489 59.0612 17.3356 58.5413 17.8004 58.128C18.2608 57.7125 18.7799 57.4157 19.3575 57.2375C19.9329 57.0528 20.5483 56.9967 21.2039 57.0692C21.855 57.1395 22.5267 57.3451 23.2188 57.686L23.7904 57.9675C24.4825 58.3084 25.0571 58.7165 25.5142 59.192C25.9668 59.6653 26.2943 60.1886 26.4964 60.7616C26.7008 61.3304 26.7764 61.9337 26.7235 62.5717C26.6683 63.2031 26.4768 63.8517 26.1489 64.5175ZM15.9317 61.1265L25.4984 65.8382L24.8739 67.1063L15.3072 62.3947L15.9317 61.1265Z" fill="#64697A"/>
<path d="M35.0636 48.042L35.9913 48.7214L32.6547 53.2772L31.727 52.5978L35.0636 48.042ZM24.22 46.7458L32.8235 53.0468L31.9882 54.1872L23.3848 47.8862L24.22 46.7458ZM30.6454 45.7322L31.5731 46.4117L28.6779 50.3648L27.7502 49.6853L30.6454 45.7322ZM27.3445 42.4795L28.2781 43.1633L24.9848 47.66L24.0512 46.9762L27.3445 42.4795Z" fill="#64697A"/>
<path d="M41.9462 39.8983L37.9558 31.1938L39.0609 30.1346L43.5897 40.5652L42.8018 41.3203L41.9462 39.8983ZM33.567 35.4001L42.0731 39.7767L43.4734 40.6767L42.6855 41.4318L32.4618 36.4593L33.567 35.4001Z" fill="#64697A"/>
<path d="M56.6754 29.0181L57.3149 29.9738L52.6216 33.114L51.9821 32.1583L56.6754 29.0181ZM46.9288 24.0921L52.859 32.9552L51.6841 33.7413L45.7539 24.8781L46.9288 24.0921ZM53.3134 25.3368L53.9529 26.2925L49.8805 29.0173L49.241 28.0616L53.3134 25.3368ZM51.3238 21.1514L51.9673 22.1132L47.3349 25.2127L46.6914 24.2509L51.3238 21.1514Z" fill="#64697A"/>
<path d="M68.879 22.9108L69.3492 23.9602L64.4832 26.1402L64.013 25.0908L68.879 22.9108ZM60.3771 16.2944L64.7372 26.0264L63.4471 26.6044L59.0871 16.8723L60.3771 16.2944Z" fill="#64697A"/>
<path d="M82.8355 14.0386L82.9961 14.693C83.187 15.4707 83.2609 16.1916 83.2178 16.8558C83.1747 17.52 83.0235 18.1127 82.7643 18.6338C82.5051 19.155 82.1473 19.5922 81.691 19.9455C81.2395 20.2977 80.6984 20.5511 80.0677 20.7059C79.456 20.8561 78.8661 20.8802 78.2981 20.7783C77.7348 20.6752 77.2129 20.4539 76.7324 20.1143C76.2566 19.7735 75.8411 19.32 75.4859 18.7535C75.1306 18.1871 74.8576 17.5151 74.6667 16.7374L74.5061 16.083C74.3152 15.3053 74.2443 14.5861 74.2933 13.9255C74.3459 13.259 74.5042 12.6646 74.7682 12.1422C75.031 11.6152 75.3881 11.1756 75.8397 10.8234C76.2959 10.4701 76.8299 10.2184 77.4417 10.0682C78.0724 9.91344 78.6693 9.88758 79.2326 9.99066C79.8006 10.0926 80.3207 10.3169 80.793 10.6635C81.2687 11.0043 81.6795 11.459 82.0252 12.0278C82.3746 12.5906 82.6446 13.2609 82.8355 14.0386ZM81.6375 15.0264L81.4734 14.3578C81.3221 13.7413 81.1243 13.2117 80.8798 12.7689C80.6402 12.325 80.3598 11.9715 80.0388 11.7083C79.7178 11.4452 79.3615 11.2738 78.9699 11.1939C78.583 11.1129 78.169 11.1265 77.728 11.2348C77.3012 11.3395 76.9351 11.5174 76.6297 11.7683C76.329 12.0181 76.0949 12.3345 75.9275 12.7175C75.7648 13.0993 75.6752 13.5436 75.6588 14.0504C75.6424 14.5572 75.7099 15.1188 75.8612 15.7353L76.0253 16.4039C76.1778 17.0251 76.3792 17.5589 76.6295 18.0053C76.8787 18.4469 77.1667 18.801 77.4936 19.0677C77.8241 19.3285 78.1804 19.4999 78.5626 19.5821C78.9495 19.6631 79.3563 19.6513 79.7831 19.5465C80.2289 19.4371 80.6045 19.2569 80.9099 19.006C81.2153 18.7551 81.447 18.4393 81.605 18.0586C81.7665 17.672 81.8507 17.2265 81.8576 16.7221C81.8634 16.2128 81.79 15.6476 81.6375 15.0264Z" fill="#64697A"/>
<path d="M95.3484 14.0649L92.5034 14.2191L92.4412 13.0709L95.2861 12.9166C95.8371 12.8868 96.2784 12.7748 96.6102 12.5808C96.942 12.3868 97.1775 12.1295 97.3166 11.809C97.4605 11.4883 97.5217 11.128 97.5 10.7282C97.4802 10.3625 97.3811 10.0231 97.2028 9.71006C97.0293 9.39672 96.7667 9.15179 96.4148 8.97527C96.0627 8.79387 95.6111 8.7181 95.0602 8.74796L92.5443 8.88434L93.0589 18.3772L91.6474 18.4538L91.0702 7.80532L94.9975 7.59243C95.802 7.54883 96.4897 7.65091 97.0606 7.8987C97.6315 8.14648 98.0741 8.50879 98.3885 8.98564C98.7025 9.45761 98.8766 10.0081 98.9107 10.637C98.9477 11.3196 98.8355 11.9101 98.574 12.4084C98.3125 12.9066 97.9107 13.2976 97.3686 13.5813C96.8263 13.8601 96.1529 14.0213 95.3484 14.0649Z" fill="#64697A"/>
<path d="M108.412 7.71273L109.766 7.91799L111.917 17.0372L116.667 8.96401L118.029 9.17036L112.144 19.0642L111.086 18.904L108.412 7.71273ZM107.97 7.64578L109.165 7.82689L108.386 14.287L107.762 18.4002L106.372 18.1894L107.97 7.64578ZM117.268 9.05512L118.463 9.23622L116.865 19.7799L115.475 19.5691L116.098 15.4559L117.268 9.05512Z" fill="#64697A"/>
<path d="M131.456 23.1758L131.063 24.2563L125.757 22.3254L126.15 21.2448L131.456 23.1758ZM129.672 12.4018L126.025 22.423L124.697 21.9397L128.343 11.9185L129.672 12.4018ZM132.44 18.2882L132.047 19.3688L127.442 17.6933L127.835 16.6127L132.44 18.2882ZM134.641 14.2101L134.245 15.2976L129.008 13.3916L129.403 12.3042L134.641 14.2101Z" fill="#64697A"/>
<path d="M149.879 22.105L144.493 31.3087L143.266 30.591L142.788 20.7805L138.633 27.8792L137.413 27.1652L142.799 17.9615L144.019 18.6755L144.506 28.5161L148.672 21.3984L149.879 22.105Z" fill="#64697A"/>
<path d="M160.545 30.2273L153.594 38.3144L152.539 37.4073L159.49 29.3202L160.545 30.2273ZM163.145 32.4617L162.391 33.3392L156.142 27.9682L156.896 27.0906L163.145 32.4617Z" fill="#64697A"/>
<path d="M166.639 51.5668C166.827 51.4345 167.025 51.3812 167.234 51.4069C167.451 51.4338 167.637 51.559 167.795 51.7825C167.952 52.006 168.006 52.222 167.956 52.4306C167.913 52.6403 167.797 52.8113 167.61 52.9436C167.426 53.073 167.228 53.1228 167.016 53.0932C166.807 53.0675 166.624 52.9429 166.466 52.7194C166.308 52.4959 166.251 52.2793 166.295 52.0695C166.341 51.8638 166.456 51.6962 166.639 51.5668Z" fill="#64697A"/>
<path d="M185.36 64.9286L175.407 68.7588L174.9 67.4396L184.852 63.6094L185.36 64.9286ZM182.487 70.8213L181.407 71.237L179.692 66.7802L180.772 66.3646L182.487 70.8213ZM187.225 69.775L186.145 70.1906L184.169 65.0572L185.249 64.6415L187.225 69.775Z" fill="#64697A"/>
<path d="M189.753 78.4301L190.43 81.8949C190.583 82.6809 190.593 83.368 190.459 83.9563C190.326 84.5494 190.052 85.0332 189.638 85.4077C189.229 85.786 188.685 86.0416 188.004 86.1746C187.525 86.2681 187.067 86.2555 186.631 86.1367C186.201 86.0218 185.811 85.8094 185.462 85.4994C185.119 85.1934 184.831 84.8019 184.598 84.3249L184.371 83.9662L183.735 80.7098L184.861 80.475L185.341 82.9335C185.439 83.4319 185.606 83.8296 185.843 84.1265C186.085 84.4226 186.371 84.6254 186.701 84.7351C187.031 84.8448 187.375 84.8646 187.735 84.7944C188.137 84.7158 188.474 84.5679 188.745 84.3508C189.016 84.1337 189.2 83.8391 189.296 83.467C189.398 83.0988 189.398 82.6487 189.294 82.1168L188.888 80.0393L179.557 81.8616L179.287 80.4743L189.753 78.4301ZM180.481 86.5916L184.729 83.1203L185.018 84.5638L180.857 88.0556L180.77 88.0724L180.481 86.5916Z" fill="#64697A"/>
<path d="M182.723 101.816L181.573 101.837L181.47 96.1911L182.619 96.1699L182.723 101.816ZM192.137 96.2806L181.475 96.4767L181.449 95.0633L192.111 94.8673L192.137 96.2806ZM187.638 100.978L186.488 101L186.398 96.1005L187.548 96.0793L187.638 100.978ZM192.234 101.568L191.077 101.589L190.975 96.0163L192.132 95.995L192.234 101.568Z" fill="#64697A"/>
<path d="M181.216 115.688L180.079 115.516L180.923 109.933L182.06 110.105L181.216 115.688ZM191.425 111.81L180.881 110.215L181.092 108.818L191.636 110.412L191.425 111.81ZM186.201 115.687L185.064 115.515L185.797 110.67L186.934 110.842L186.201 115.687ZM190.634 117.038L189.49 116.865L190.323 111.354L191.467 111.527L190.634 117.038Z" fill="#64697A"/>
<path d="M177.5 128.819L176.408 128.459L178.078 123.395L179.17 123.755L177.5 128.819ZM188.118 127L177.991 123.66L178.434 122.317L188.561 125.657L188.118 127Z" fill="#64697A"/>
<path d="M180.265 143.26L173.374 135.55L174.057 134.279L181.527 142.907L181.087 143.727L180.265 143.26ZM170.303 141.266L180.539 142.751L181.382 143.178L180.941 143.998L169.616 142.544L170.303 141.266ZM173.867 142.974L172.848 142.426L175.683 137.148L176.703 137.696L173.867 142.974Z" fill="#64697A"/>
<path d="M169.19 160.939L160.895 154.237L161.788 153.132L171.56 154.125L165.162 148.956L166.05 147.856L174.345 154.559L173.457 155.658L163.654 154.668L170.069 159.851L169.19 160.939Z" fill="#64697A"/>
<path d="M152.906 166.382L151.834 167.293C151.454 166.732 151.21 166.148 151.103 165.54C150.997 164.932 151.06 164.324 151.292 163.716C151.528 163.112 151.972 162.533 152.623 161.979C153.099 161.574 153.608 161.295 154.151 161.142C154.689 160.991 155.237 160.961 155.795 161.051C156.355 161.145 156.908 161.358 157.453 161.689C157.997 162.028 158.511 162.482 158.995 163.051L159.683 163.86C160.167 164.429 160.53 165.007 160.774 165.595C161.017 166.19 161.137 166.773 161.136 167.344C161.131 167.919 161.004 168.466 160.754 168.986C160.504 169.507 160.128 169.98 159.626 170.407C159.012 170.929 158.395 171.255 157.775 171.385C157.155 171.515 156.553 171.475 155.971 171.265C155.388 171.062 154.841 170.716 154.33 170.228L155.401 169.317C155.776 169.652 156.149 169.896 156.522 170.047C156.897 170.202 157.278 170.243 157.665 170.171C158.052 170.098 158.456 169.883 158.876 169.526C159.237 169.219 159.496 168.88 159.655 168.508C159.809 168.139 159.872 167.749 159.843 167.338C159.81 166.93 159.69 166.51 159.482 166.078C159.275 165.645 158.988 165.213 158.621 164.782L157.923 163.962C157.585 163.564 157.226 163.225 156.847 162.944C156.464 162.668 156.075 162.47 155.679 162.351C155.283 162.233 154.889 162.209 154.495 162.281C154.104 162.357 153.729 162.548 153.368 162.855C152.91 163.244 152.607 163.627 152.459 164.003C152.311 164.379 152.283 164.761 152.377 165.15C152.466 165.541 152.643 165.952 152.906 166.382Z" fill="#64697A"/>
<path d="M138.69 173.076L138.108 172.084L142.98 169.229L143.561 170.221L138.69 173.076ZM148.126 178.573L142.733 169.373L143.953 168.658L149.346 177.859L148.126 178.573ZM141.827 176.951L141.245 175.959L145.472 173.481L146.054 174.473L141.827 176.951ZM143.564 181.247L142.979 180.249L147.787 177.431L148.372 178.429L143.564 181.247Z" fill="#64697A"/>
<path d="M135.515 185.097L132.206 186.326C131.455 186.605 130.779 186.726 130.176 186.689C129.569 186.654 129.048 186.462 128.611 186.114C128.171 185.772 127.831 185.276 127.59 184.626C127.419 184.169 127.358 183.715 127.404 183.265C127.448 182.822 127.594 182.403 127.844 182.008C128.09 181.62 128.43 181.272 128.863 180.966L129.18 180.684L132.29 179.528L132.704 180.601L130.356 181.473C129.88 181.65 129.515 181.88 129.26 182.162C129.007 182.448 128.853 182.763 128.799 183.107C128.744 183.45 128.78 183.793 128.908 184.137C129.051 184.521 129.251 184.83 129.509 185.062C129.767 185.294 130.088 185.428 130.471 185.462C130.851 185.504 131.295 185.43 131.803 185.241L133.787 184.504L130.476 175.592L131.801 175.1L135.515 185.097ZM125.959 177.27L130.072 180.899L128.695 181.419L124.575 177.878L124.544 177.796L125.959 177.27Z" fill="#64697A"/>
<path d="M109.237 181.708C109.26 181.936 109.21 182.135 109.085 182.305C108.956 182.48 108.755 182.582 108.483 182.61C108.211 182.638 107.996 182.579 107.839 182.434C107.677 182.293 107.584 182.109 107.561 181.881C107.538 181.657 107.591 181.46 107.721 181.29C107.846 181.12 108.044 181.021 108.316 180.993C108.588 180.965 108.805 181.021 108.967 181.161C109.123 181.302 109.213 181.484 109.237 181.708Z" fill="#64697A"/>
</svg>
