<svg width="32" height="20" viewBox="0 0 32 20" fill="none" xmlns="http://www.w3.org/2000/svg">
<path d="M16 0C11.7334 0 9.06662 2.21649 8 6.64935C9.6 4.43286 11.4666 3.60169 13.6 4.15584C14.8171 4.47195 15.6871 5.38948 16.6501 6.40493C18.2189 8.05935 20.0344 9.97403 24 9.97403C28.2666 9.97403 30.9334 7.75753 32 3.32468C30.4 5.54117 28.5334 6.37234 26.4 5.81818C25.1829 5.50208 24.3129 4.58455 23.3499 3.56909C21.7811 1.91468 19.9656 0 16 0ZM8 9.97403C3.73338 9.97403 1.06662 12.1905 0 16.6234C1.6 14.4069 3.46662 13.5757 5.6 14.1299C6.81712 14.446 7.68712 15.3635 8.65012 16.379C10.2189 18.0334 12.0344 19.9481 16 19.9481C20.2666 19.9481 22.9334 17.7316 24 13.2987C22.4 15.5152 20.5334 16.3464 18.4 15.7922C17.1829 15.4761 16.3129 14.5586 15.3499 13.5431C13.7811 11.8887 11.9656 9.97403 8 9.97403Z" fill="url(#paint0_linear_1110_472)"/>
<defs>
<linearGradient id="paint0_linear_1110_472" x1="-0.88896" y1="6.38338" x2="27.2652" y2="22.0078" gradientUnits="userSpaceOnUse">
<stop stop-color="#2298BD"/>
<stop offset="1" stop-color="#0ED7B5"/>
</linearGradient>
</defs>
</svg>
